<svg width="130" height="32" viewBox="0 0 130 32" fill="none" xmlns="http://www.w3.org/2000/svg">
	<path d="M125.578 0H4.42177C1.9797 0 0 2.23858 0 5V27C0 29.7614 1.9797 32 4.42177 32H125.578C128.02 32 130 29.7614 130 27V5C130 2.23858 128.02 0 125.578 0Z" fill="#F4F4F4" />
	<path d="M125.603 0H28V32H125.603C128.031 32 130 29.7614 130 27V5C130 2.23858 128.031 0 125.603 0Z" fill="#0F1418" />
	<path d="M43.7712 13.6172C43.6966 13.358 43.5918 13.1289 43.4569 12.93C43.322 12.7276 43.1568 12.5572 42.9615 12.4187C42.7698 12.2766 42.5496 12.1683 42.301 12.0938C42.056 12.0192 41.7843 11.9819 41.486 11.9819C40.9285 11.9819 40.4384 12.1204 40.0158 12.3974C39.5968 12.6744 39.2701 13.0774 39.0357 13.6065C38.8014 14.1321 38.6842 14.7749 38.6842 15.5348C38.6842 16.2947 38.7996 16.9411 39.0304 17.4737C39.2612 18.0064 39.5879 18.413 40.0105 18.6935C40.4331 18.9705 40.932 19.109 41.5073 19.109C42.0293 19.109 42.475 19.0167 42.8443 18.832C43.2172 18.6438 43.5013 18.3793 43.6966 18.0384C43.8955 17.6974 43.9949 17.2944 43.9949 16.8292L44.4636 16.8984H41.6511V15.1619H46.2161V16.5362C46.2161 17.495 46.0137 18.3189 45.6089 19.0078C45.2041 19.6932 44.6465 20.2223 43.9363 20.5952C43.2261 20.9645 42.4129 21.1491 41.4967 21.1491C40.4739 21.1491 39.5755 20.9237 38.8014 20.4727C38.0272 20.0181 37.4235 19.3736 36.9903 18.5391C36.5606 17.701 36.3457 16.7067 36.3457 15.5561C36.3457 14.6719 36.4736 13.8835 36.7293 13.1911C36.9885 12.495 37.3507 11.9055 37.8159 11.4226C38.2811 10.9396 38.8227 10.5721 39.4406 10.32C40.0585 10.0678 40.7278 9.94176 41.4487 9.94176C42.0666 9.94176 42.6419 10.0323 43.1746 10.2134C43.7073 10.391 44.1796 10.6431 44.5915 10.9698C45.007 11.2965 45.3461 11.6854 45.6089 12.1364C45.8717 12.5838 46.0404 13.0774 46.1149 13.6172H43.7712ZM51.6028 21.1598C50.7753 21.1598 50.0598 20.984 49.4561 20.6325C48.856 20.2773 48.3925 19.7837 48.0658 19.1516C47.7391 18.516 47.5758 17.7791 47.5758 16.9411C47.5758 16.0959 47.7391 15.3572 48.0658 14.7251C48.3925 14.0895 48.856 13.5959 49.4561 13.2443C50.0598 12.8892 50.7753 12.7116 51.6028 12.7116C52.4302 12.7116 53.144 12.8892 53.7441 13.2443C54.3478 13.5959 54.813 14.0895 55.1397 14.7251C55.4664 15.3572 55.6298 16.0959 55.6298 16.9411C55.6298 17.7791 55.4664 18.516 55.1397 19.1516C54.813 19.7837 54.3478 20.2773 53.7441 20.6325C53.144 20.984 52.4302 21.1598 51.6028 21.1598ZM51.6134 19.402C51.9898 19.402 52.3041 19.2955 52.5562 19.0824C52.8084 18.8658 52.9984 18.571 53.1262 18.1982C53.2576 17.8253 53.3233 17.4009 53.3233 16.9251C53.3233 16.4492 53.2576 16.0249 53.1262 15.652C52.9984 15.2791 52.8084 14.9844 52.5562 14.7678C52.3041 14.5511 51.9898 14.4428 51.6134 14.4428C51.2334 14.4428 50.9138 14.5511 50.6546 14.7678C50.3989 14.9844 50.2054 15.2791 50.074 15.652C49.9462 16.0249 49.8822 16.4492 49.8822 16.9251C49.8822 17.4009 49.9462 17.8253 50.074 18.1982C50.2054 18.571 50.3989 18.8658 50.6546 19.0824C50.9138 19.2955 51.2334 19.402 51.6134 19.402ZM60.802 21.1598C59.9746 21.1598 59.259 20.984 58.6553 20.6325C58.0552 20.2773 57.5918 19.7837 57.265 19.1516C56.9383 18.516 56.775 17.7791 56.775 16.9411C56.775 16.0959 56.9383 15.3572 57.265 14.7251C57.5918 14.0895 58.0552 13.5959 58.6553 13.2443C59.259 12.8892 59.9746 12.7116 60.802 12.7116C61.6294 12.7116 62.3432 12.8892 62.9433 13.2443C63.547 13.5959 64.0122 14.0895 64.3389 14.7251C64.6656 15.3572 64.829 16.0959 64.829 16.9411C64.829 17.7791 64.6656 18.516 64.3389 19.1516C64.0122 19.7837 63.547 20.2773 62.9433 20.6325C62.3432 20.984 61.6294 21.1598 60.802 21.1598ZM60.8126 19.402C61.1891 19.402 61.5033 19.2955 61.7555 19.0824C62.0076 18.8658 62.1976 18.571 62.3254 18.1982C62.4568 17.8253 62.5225 17.4009 62.5225 16.9251C62.5225 16.4492 62.4568 16.0249 62.3254 15.652C62.1976 15.2791 62.0076 14.9844 61.7555 14.7678C61.5033 14.5511 61.1891 14.4428 60.8126 14.4428C60.4327 14.4428 60.1131 14.5511 59.8538 14.7678C59.5981 14.9844 59.4046 15.2791 59.2732 15.652C59.1454 16.0249 59.0815 16.4492 59.0815 16.9251C59.0815 17.4009 59.1454 17.8253 59.2732 18.1982C59.4046 18.571 59.5981 18.8658 59.8538 19.0824C60.1131 19.2955 60.4327 19.402 60.8126 19.402ZM69.9905 24.2386C69.2555 24.2386 68.6251 24.1374 68.0996 23.935C67.5775 23.7362 67.1621 23.4645 66.8531 23.12C66.5442 22.7756 66.3435 22.3885 66.2512 21.9588L68.3499 21.6765C68.4138 21.8398 68.515 21.9925 68.6535 22.1346C68.792 22.2766 68.9749 22.3903 69.2022 22.4755C69.433 22.5643 69.7136 22.6087 70.0438 22.6087C70.5374 22.6087 70.944 22.4879 71.2636 22.2464C71.5868 22.0085 71.7484 21.609 71.7484 21.0479V19.5511H71.6525C71.553 19.7784 71.4039 19.9933 71.205 20.1957C71.0062 20.3981 70.7505 20.5632 70.438 20.6911C70.1255 20.8189 69.7526 20.8828 69.3194 20.8828C68.705 20.8828 68.1457 20.7408 67.6415 20.4567C67.1408 20.169 66.7413 19.7305 66.443 19.141C66.1482 18.5479 66.0008 17.7987 66.0008 16.8931C66.0008 15.9663 66.1518 15.1921 66.4536 14.5707C66.7555 13.9492 67.1567 13.484 67.6574 13.1751C68.1617 12.8661 68.7139 12.7116 69.3141 12.7116C69.7722 12.7116 70.1557 12.7898 70.4646 12.946C70.7736 13.0987 71.0222 13.2905 71.2104 13.5213C71.4021 13.7486 71.5495 13.9723 71.6525 14.1925H71.7377V12.8182H73.9909V21.0799C73.9909 21.7759 73.8204 22.3583 73.4795 22.8271C73.1386 23.2958 72.6663 23.6474 72.0626 23.8817C71.4625 24.1197 70.7718 24.2386 69.9905 24.2386ZM70.0385 19.1783C70.4043 19.1783 70.7132 19.0877 70.9653 18.9066C71.221 18.7219 71.4163 18.4592 71.5513 18.1183C71.6898 17.7738 71.759 17.3619 71.759 16.8825C71.759 16.4031 71.6915 15.9876 71.5566 15.636C71.4217 15.2809 71.2263 15.0057 70.9707 14.8104C70.715 14.6151 70.4043 14.5174 70.0385 14.5174C69.6656 14.5174 69.3513 14.6186 69.0957 14.821C68.84 15.0199 68.6464 15.2969 68.515 15.652C68.3837 16.0071 68.318 16.4173 68.318 16.8825C68.318 17.3548 68.3837 17.7631 68.515 18.1076C68.65 18.4485 68.8435 18.7131 69.0957 18.9013C69.3513 19.0859 69.6656 19.1783 70.0385 19.1783ZM78.0658 10.0909V21H75.7967V10.0909H78.0658ZM83.6123 21.1598C82.7706 21.1598 82.0462 20.9893 81.439 20.6484C80.8353 20.304 80.3701 19.8175 80.0434 19.1889C79.7167 18.5568 79.5533 17.8093 79.5533 16.9464C79.5533 16.1048 79.7167 15.3661 80.0434 14.7305C80.3701 14.0948 80.8299 13.5994 81.423 13.2443C82.0196 12.8892 82.7191 12.7116 83.5217 12.7116C84.0615 12.7116 84.564 12.7987 85.0292 12.9727C85.4979 13.1431 85.9063 13.4006 86.2543 13.745C86.6059 14.0895 86.8793 14.5227 87.0746 15.0447C87.2699 15.5632 87.3676 16.1705 87.3676 16.8665V17.4897H80.4589V16.0835H85.2316C85.2316 15.7567 85.1606 15.4673 85.0185 15.2152C84.8765 14.9631 84.6794 14.766 84.4272 14.6239C84.1787 14.4783 83.8892 14.4055 83.559 14.4055C83.2145 14.4055 82.9091 14.4854 82.6428 14.6452C82.38 14.8015 82.1741 15.0128 82.0249 15.2791C81.8758 15.5419 81.7994 15.8349 81.7959 16.158V17.495C81.7959 17.8999 81.8704 18.2496 82.0196 18.5444C82.1723 18.8391 82.3871 19.0664 82.6641 19.2262C82.9411 19.386 83.2696 19.4659 83.6495 19.4659C83.9017 19.4659 84.1325 19.4304 84.342 19.3594C84.5515 19.2884 84.7309 19.1818 84.88 19.0398C85.0292 18.8977 85.1428 18.7237 85.2209 18.5178L87.3196 18.6562C87.2131 19.1605 86.9947 19.6009 86.6645 19.9773C86.3378 20.3501 85.9152 20.6413 85.3967 20.8509C84.8818 21.0568 84.287 21.1598 83.6123 21.1598ZM92.3627 21V10.0909H96.6667C97.4941 10.0909 98.199 10.2489 98.7814 10.565C99.3638 10.8775 99.8077 11.3125 100.113 11.87C100.422 12.424 100.576 13.0632 100.576 13.7876C100.576 14.5121 100.42 15.1513 100.108 15.7053C99.7952 16.2592 99.3425 16.6907 98.7494 16.9996C98.1599 17.3086 97.4462 17.4631 96.6081 17.4631H93.8648V15.6147H96.2352C96.6791 15.6147 97.0449 15.5384 97.3325 15.3857C97.6237 15.2294 97.8403 15.0146 97.9824 14.7411C98.128 14.4641 98.2008 14.1463 98.2008 13.7876C98.2008 13.4254 98.128 13.1094 97.9824 12.8395C97.8403 12.5661 97.6237 12.3548 97.3325 12.2056C97.0413 12.0529 96.672 11.9766 96.2246 11.9766H94.6692V21H92.3627ZM104.301 10.0909V21H102.032V10.0909H104.301ZM108.452 21.1545C107.93 21.1545 107.465 21.0639 107.056 20.8828C106.648 20.6982 106.325 20.4265 106.087 20.0678C105.853 19.7056 105.735 19.2546 105.735 18.7148C105.735 18.2603 105.819 17.8786 105.986 17.5696C106.153 17.2607 106.38 17.0121 106.668 16.8239C106.955 16.6357 107.282 16.4936 107.648 16.3977C108.017 16.3018 108.404 16.2344 108.809 16.1953C109.285 16.1456 109.668 16.0994 109.959 16.0568C110.251 16.0107 110.462 15.9432 110.593 15.8544C110.725 15.7656 110.79 15.6342 110.79 15.4602V15.4283C110.79 15.0909 110.684 14.8299 110.471 14.6452C110.261 14.4606 109.963 14.3683 109.576 14.3683C109.168 14.3683 108.843 14.4588 108.601 14.6399C108.36 14.8175 108.2 15.0412 108.122 15.3111L106.023 15.1406C106.13 14.6435 106.339 14.2138 106.652 13.8516C106.964 13.4858 107.367 13.2053 107.861 13.0099C108.358 12.8111 108.933 12.7116 109.587 12.7116C110.041 12.7116 110.476 12.7649 110.892 12.8714C111.311 12.978 111.682 13.1431 112.005 13.3668C112.332 13.5906 112.589 13.8782 112.777 14.2298C112.966 14.5778 113.06 14.995 113.06 15.4815V21H110.908V19.8654H110.844C110.712 20.1211 110.537 20.3466 110.316 20.5419C110.096 20.7337 109.832 20.8846 109.523 20.9947C109.214 21.1012 108.857 21.1545 108.452 21.1545ZM109.102 19.5884C109.436 19.5884 109.73 19.5227 109.986 19.3913C110.242 19.2564 110.442 19.0753 110.588 18.848C110.734 18.6207 110.806 18.3633 110.806 18.0756V17.2074C110.735 17.2536 110.638 17.2962 110.513 17.3352C110.393 17.3707 110.256 17.4045 110.103 17.4364C109.951 17.4648 109.798 17.4915 109.645 17.5163C109.492 17.5376 109.354 17.5572 109.23 17.5749C108.963 17.614 108.731 17.6761 108.532 17.7614C108.333 17.8466 108.179 17.962 108.068 18.1076C107.958 18.2496 107.903 18.4272 107.903 18.6403C107.903 18.9492 108.015 19.1854 108.239 19.3487C108.466 19.5085 108.754 19.5884 109.102 19.5884ZM115.928 24.0682C115.64 24.0682 115.371 24.0451 115.118 23.9989C114.87 23.9563 114.664 23.9013 114.5 23.8338L115.012 22.1399C115.278 22.2216 115.518 22.266 115.731 22.2731C115.948 22.2802 116.134 22.2305 116.29 22.1239C116.45 22.0174 116.58 21.8363 116.679 21.5806L116.812 21.2344L113.877 12.8182H116.264L117.958 18.8267H118.043L119.753 12.8182H122.155L118.975 21.8842C118.822 22.3246 118.614 22.7081 118.352 23.0348C118.092 23.3651 117.764 23.619 117.366 23.7965C116.969 23.9776 116.489 24.0682 115.928 24.0682Z" fill="white" />
	<g clip-path="url(#clip0_10_3)">
		<path d="M21.6704 12.5754C18.7662 10.951 14.1049 8.34266 6.87477 4.29436C6.38732 3.97243 5.82647 3.93025 5.3419 4.09426L17.7467 16.4991L21.6704 12.5754Z" fill="#32BBFF" />
		<path d="M5.3419 4.09424C5.25108 4.125 5.1627 4.16211 5.07818 4.20693C4.54307 4.49639 4.14986 5.05337 4.14986 5.75782V27.2403C4.14986 27.9447 4.54302 28.5017 5.07818 28.7911C5.16255 28.8359 5.25088 28.8731 5.34161 28.9041L17.7467 16.499L5.3419 4.09424Z" fill="#32BBFF" />
		<path d="M17.7467 16.4991L5.34161 28.9041C5.82633 29.0693 6.38717 29.0304 6.87477 28.7038C13.8864 24.7775 18.4952 22.2 21.433 20.5619C21.5148 20.5159 21.5949 20.471 21.6741 20.4265L17.7467 16.4991Z" fill="#32BBFF" />
		<path d="M4.14986 16.4991V27.2403C4.14986 27.9447 4.54302 28.5017 5.07818 28.7911C5.16255 28.8359 5.25088 28.8732 5.34161 28.9041L17.7467 16.4991H4.14986Z" fill="#2C9FD9" />
		<path d="M6.87476 4.29445C6.2959 3.91223 5.61328 3.92312 5.07817 4.2071L17.5584 16.6874L21.6703 12.5755C18.7662 10.9511 14.1048 8.34275 6.87476 4.29445Z" fill="#29CC5E" />
		<path d="M17.5585 16.3109L5.07817 28.7911C5.61333 29.075 6.2959 29.0914 6.87476 28.7037C13.8864 24.7775 18.4952 22.2 21.433 20.5618C21.5148 20.5159 21.5949 20.471 21.6741 20.4265L17.5585 16.3109Z" fill="#D93F21" />
		<path d="M26.8501 16.4991C26.8501 15.9038 26.5498 15.3032 25.9545 14.97C25.9545 14.97 24.8413 14.3489 21.429 12.4403L17.3703 16.4991L21.433 20.5618C24.8078 18.6669 25.9545 18.028 25.9545 18.028C26.5498 17.695 26.8501 17.0943 26.8501 16.4991Z" fill="#FFD500" />
		<path d="M25.9545 18.0281C26.5498 17.695 26.8501 17.0943 26.8501 16.4991H17.3703L21.433 20.5618C24.8078 18.667 25.9545 18.0281 25.9545 18.0281Z" fill="#FFAA00" />
	</g>
	<path d="M124.397 0H5C2.23858 0 0 2.23858 0 5V27C0 29.7614 2.23858 32 5 32H124.397C127.491 32 130 29.7614 130 27V5C130 2.23858 127.491 0 124.397 0Z" fill="url(#paint0_linear_10_3)" />
	<defs>
		<linearGradient id="paint0_linear_10_3" x1="65" y1="0" x2="65" y2="32" gradientUnits="userSpaceOnUse">
			<stop stop-color="#BBBBBB" stop-opacity="0.1" />
			<stop offset="1" stop-opacity="0.1" />
		</linearGradient>
		<clipPath id="clip0_10_3">
			<rect width="25" height="25" fill="white" transform="translate(3 4)" />
		</clipPath>
	</defs>
</svg>