<svg width="112" height="36" viewBox="0 0 112 36" fill="none" xmlns="http://www.w3.org/2000/svg">
	<g filter="url(#filter0_d_1_13)">
		<path d="M104.463 0H7.53741C5.58376 0 4 2.23858 4 5V27C4 29.7614 5.58376 32 7.53741 32H104.463C106.416 32 108 29.7614 108 27V5C108 2.23858 106.416 0 104.463 0Z" fill="url(#paint0_linear_1_13)" />
		<path d="M104.897 0H36V32H104.897C106.61 32 108 29.7614 108 27V5C108 2.23858 106.61 0 104.897 0Z" fill="#030303" />
		<path d="M49.1366 9.44V8.62H53.9566V9.44L52.2566 9.7V22.14H51.5566L43.5566 11.24V20.9L45.6766 21.18V22H40.8366V21.18L42.5366 20.94V9.84L42.3566 9.6L40.9366 9.44V8.62H44.0166L51.2366 18.54V9.7L49.1366 9.44ZM59.9093 13.16C59.536 13.16 59.156 13.2667 58.7693 13.48C58.396 13.6933 58.0693 14.0333 57.7893 14.5C57.5226 14.9667 57.3493 15.5867 57.2693 16.36H60.9093C61.3893 16.36 61.7026 16.26 61.8493 16.06C62.0093 15.86 62.0893 15.6133 62.0893 15.32C62.0893 14.9333 61.9893 14.58 61.7893 14.26C61.6026 13.9267 61.3426 13.66 61.0093 13.46C60.6893 13.26 60.3226 13.16 59.9093 13.16ZM59.8893 22.26C58.5426 22.26 57.4626 21.8267 56.6493 20.96C55.836 20.08 55.4293 18.8733 55.4293 17.34C55.4293 16.3133 55.636 15.42 56.0493 14.66C56.476 13.9 57.036 13.3067 57.7293 12.88C58.436 12.4533 59.2026 12.24 60.0293 12.24C60.7226 12.24 61.3493 12.3933 61.9093 12.7C62.4693 13.0067 62.916 13.4467 63.2493 14.02C63.5826 14.58 63.7493 15.2667 63.7493 16.08C63.7493 16.3067 63.736 16.52 63.7093 16.72C63.6826 16.9067 63.6493 17.0667 63.6093 17.2H57.2293C57.256 18.4267 57.5626 19.36 58.1493 20C58.736 20.64 59.5093 20.96 60.4693 20.96C61.1093 20.96 61.6426 20.8333 62.0693 20.58C62.496 20.3133 62.8893 19.9733 63.2493 19.56L63.7293 19.94C63.356 20.6467 62.8493 21.2133 62.2093 21.64C61.5693 22.0533 60.796 22.26 59.8893 22.26ZM71.0446 13.28V12.5H74.7846V13.28L73.6046 13.5L70.7446 17.02L73.5246 21L75.0446 21.28V22H70.1646V21.28L71.5846 21.02L69.6246 18.16L67.4246 21.02L68.9246 21.28V22H64.9246V21.28L66.2046 21.04L69.1246 17.42L66.4446 13.5L65.0646 13.28V12.5H69.5246V13.28L68.3046 13.5L70.2246 16.28L72.3646 13.54L71.0446 13.28ZM79.352 22.26C78.6586 22.26 78.1053 22.0733 77.692 21.7C77.2786 21.3267 77.072 20.7533 77.072 19.98C77.072 19.7267 77.072 19.48 77.072 19.24C77.0853 18.9867 77.092 18.6667 77.092 18.28V13.56H75.432V12.68L77.212 12.46L77.732 9.78H78.932L78.812 12.5H81.512V13.56H78.792V19.76C78.792 20.2667 78.892 20.64 79.092 20.88C79.292 21.1067 79.5586 21.22 79.892 21.22C80.1186 21.22 80.332 21.1733 80.532 21.08C80.7453 20.9867 80.9786 20.8533 81.232 20.68L81.712 21.2C81.1653 21.9067 80.3786 22.26 79.352 22.26ZM87.3638 9.44V8.62H93.2238V9.44L91.3838 9.66C91.3705 10.5 91.3572 11.3533 91.3438 12.22C91.3438 13.0733 91.3438 13.9333 91.3438 14.8V17.92C91.3438 18.9333 91.3238 19.78 91.2838 20.46C91.2572 21.14 91.1972 21.7067 91.1038 22.16C91.0105 22.6133 90.8772 22.9933 90.7038 23.3C90.5438 23.6067 90.3238 23.9 90.0438 24.18C89.7105 24.5133 89.3038 24.7733 88.8238 24.96C88.3572 25.16 87.8505 25.26 87.3038 25.26C86.9305 25.26 86.5772 25.1867 86.2438 25.04C85.8972 24.9067 85.6705 24.6533 85.5638 24.28C85.6305 23.9067 85.7772 23.6467 86.0038 23.5C86.2172 23.3533 86.4838 23.28 86.8038 23.28C87.2572 23.28 87.7572 23.4867 88.3038 23.9L88.8038 24.3C89.0972 24.02 89.2972 23.6867 89.4038 23.3C89.5238 22.9133 89.5838 22.4333 89.5838 21.86C89.5838 21.62 89.5772 21.3267 89.5638 20.98C89.5638 20.6333 89.5572 20.18 89.5438 19.62C89.5305 19.06 89.5172 18.3467 89.5038 17.48C89.4905 16.6133 89.4705 15.54 89.4438 14.26C89.4305 12.98 89.4172 11.4467 89.4038 9.66L87.3638 9.44ZM98.409 22.3C97.6623 22.3 96.9423 22.2 96.249 22C95.5557 21.7867 94.9757 21.5333 94.509 21.24L94.629 18.44H95.869L96.269 20.8C96.5757 20.9733 96.889 21.1 97.209 21.18C97.5423 21.26 97.9223 21.3 98.349 21.3C99.2957 21.3 100.049 21.0933 100.609 20.68C101.169 20.2533 101.449 19.6533 101.449 18.88C101.449 18.24 101.249 17.7467 100.849 17.4C100.462 17.04 99.8423 16.6933 98.989 16.36L98.209 16.04C97.1823 15.64 96.349 15.1267 95.709 14.5C95.0823 13.86 94.769 13.0333 94.769 12.02C94.769 11.2467 94.9623 10.5867 95.349 10.04C95.749 9.49333 96.289 9.07333 96.969 8.78C97.649 8.47333 98.4157 8.32 99.269 8.32C99.9357 8.32 100.542 8.41333 101.089 8.6C101.636 8.78667 102.122 9.04 102.549 9.36L102.429 11.98H101.209L100.789 9.72C100.296 9.45333 99.749 9.32 99.149 9.32C98.389 9.32 97.749 9.51333 97.229 9.9C96.709 10.2733 96.449 10.8333 96.449 11.58C96.449 12.1933 96.6423 12.7 97.029 13.1C97.429 13.5 97.989 13.84 98.709 14.12L99.509 14.42C100.816 14.9267 101.749 15.5 102.309 16.14C102.869 16.7667 103.149 17.5533 103.149 18.5C103.149 19.2867 102.942 19.9667 102.529 20.54C102.129 21.1 101.576 21.5333 100.869 21.84C100.162 22.1467 99.3423 22.3 98.409 22.3Z" fill="white" />
		<g clip-path="url(#clip0_1_13)">
			<path d="M18.4993 2.02187C18.4392 2.02734 18.2478 2.04648 18.0755 2.06015C14.1029 2.41832 10.3818 4.56186 8.02497 7.85646C6.71259 9.68831 5.87322 11.7662 5.55607 13.9672C5.44397 14.7355 5.4303 14.9624 5.4303 16.0041C5.4303 17.0458 5.44397 17.2727 5.55607 18.041C6.31615 23.2932 10.0537 27.7061 15.1227 29.3411C16.0304 29.6336 16.9874 29.8332 18.0755 29.9535C18.4993 30 20.3312 30 20.755 29.9535C22.6333 29.7457 24.2246 29.2809 25.7939 28.4798C26.0345 28.3568 26.081 28.324 26.0482 28.2966C26.0263 28.2802 25.001 26.905 23.7707 25.2427L21.5342 22.2215L18.7317 18.0738C17.1897 15.7936 15.9211 13.9289 15.9101 13.9289C15.8992 13.9262 15.8883 15.769 15.8828 18.0191C15.8746 21.959 15.8719 22.1176 15.8226 22.2105C15.7516 22.3445 15.6969 22.3992 15.582 22.4593C15.4945 22.5031 15.418 22.5113 15.0051 22.5113H14.5321L14.4064 22.432C14.3244 22.38 14.2642 22.3117 14.2232 22.2324L14.1658 22.1094L14.1712 16.6275L14.1794 11.1429L14.2642 11.0362C14.3079 10.9788 14.4009 10.905 14.4665 10.8694C14.5786 10.8148 14.6224 10.8093 15.0954 10.8093C15.6531 10.8093 15.7461 10.8312 15.891 10.9897C15.932 11.0335 17.4494 13.3192 19.2649 16.0725C21.0803 18.8257 23.5629 22.5851 24.7823 24.4306L26.9969 27.7854L27.109 27.7115C28.1015 27.0663 29.1514 26.1476 29.9826 25.1907C31.7516 23.1593 32.8917 20.6822 33.2745 18.041C33.3866 17.2727 33.4002 17.0458 33.4002 16.0041C33.4002 14.9624 33.3866 14.7355 33.2745 13.9672C32.5144 8.71497 28.7768 4.30212 23.7078 2.66712C22.8138 2.37731 21.8623 2.17772 20.796 2.05741C20.5335 2.03007 18.7263 2 18.4993 2.02187ZM24.2246 10.4812C24.3558 10.5468 24.4624 10.6726 24.5007 10.8038C24.5226 10.8749 24.528 12.3951 24.5226 15.8209L24.5144 20.7368L23.6477 19.4081L22.7782 18.0793V14.5058C22.7782 12.1955 22.7891 10.8968 22.8056 10.8339C22.8493 10.6808 22.945 10.5605 23.0762 10.4894C23.1883 10.432 23.2293 10.4265 23.6586 10.4265C24.0632 10.4265 24.1343 10.432 24.2246 10.4812Z" fill="black" />
			<path d="M26.86 27.8455C26.7643 27.9057 26.7342 27.9467 26.819 27.9002C26.8791 27.8647 26.9775 27.7909 26.9611 27.7881C26.9529 27.7881 26.9064 27.8155 26.86 27.8455ZM26.6713 27.9686C26.6221 28.0068 26.6221 28.0096 26.6822 27.9795C26.7151 27.9631 26.7424 27.944 26.7424 27.9385C26.7424 27.9166 26.7287 27.9221 26.6713 27.9686ZM26.5346 28.0506C26.4854 28.0889 26.4854 28.0916 26.5455 28.0615C26.5784 28.0451 26.6057 28.026 26.6057 28.0205C26.6057 27.9986 26.592 28.0041 26.5346 28.0506ZM26.3979 28.1326C26.3487 28.1709 26.3487 28.1736 26.4088 28.1436C26.4416 28.1271 26.469 28.108 26.469 28.1025C26.469 28.0807 26.4553 28.0861 26.3979 28.1326ZM26.1901 28.242C26.0862 28.2967 26.0917 28.3185 26.1956 28.2666C26.2421 28.242 26.2776 28.2174 26.2776 28.2119C26.2776 28.1928 26.2749 28.1955 26.1901 28.242Z" fill="black" />
		</g>
	</g>
	<defs>
		<filter id="filter0_d_1_13" x="0" y="0" width="112" height="40" filterUnits="userSpaceOnUse" color-interpolation-filters="sRGB">
			<feFlood flood-opacity="0" result="BackgroundImageFix" />
			<feColorMatrix in="SourceAlpha" type="matrix" values="0 0 0 0 0 0 0 0 0 0 0 0 0 0 0 0 0 0 127 0" result="hardAlpha" />
			<feOffset dy="4" />
			<feGaussianBlur stdDeviation="2" />
			<feComposite in2="hardAlpha" operator="out" />
			<feColorMatrix type="matrix" values="0 0 0 0 0 0 0 0 0 0 0 0 0 0 0 0 0 0 0.25 0" />
			<feBlend mode="normal" in2="BackgroundImageFix" result="effect1_dropShadow_1_13" />
			<feBlend mode="normal" in="SourceGraphic" in2="effect1_dropShadow_1_13" result="shape" />
		</filter>
		<linearGradient id="paint0_linear_1_13" x1="4" y1="0" x2="4" y2="32" gradientUnits="userSpaceOnUse">
			<stop stop-color="#D1D1D1" />
			<stop offset="0.9999" stop-color="#0A0A0A" />
			<stop offset="1" stop-opacity="0.1" />
		</linearGradient>
		<clipPath id="clip0_1_13">
			<rect width="28" height="28" fill="white" transform="translate(5.41498 2)" />
		</clipPath>
	</defs>
</svg>