<svg width="109" height="32" viewBox="0 0 109 32" fill="none" xmlns="http://www.w3.org/2000/svg">
	<path d="M105.293 0H3.70748C1.6599 0 0 2.23858 0 5V27C0 29.7614 1.6599 32 3.70748 32H105.293C107.34 32 109 29.7614 109 27V5C109 2.23858 107.34 0 105.293 0Z" fill="url(#paint0_linear_1_13)" />
	<path d="M105.638 0H31V32H105.638C107.494 32 109 29.7614 109 27V5C109 2.23858 107.494 0 105.638 0Z" fill="#0F1418" fill-opacity="0.87" />
	<path d="M53.938 10.0909V21H51.9458L47.1998 14.1339H47.1199V21H44.8134V10.0909H46.8375L51.5463 16.9517H51.6422V10.0909H53.938ZM59.5297 21.1598C58.6881 21.1598 57.9637 20.9893 57.3564 20.6484C56.7528 20.304 56.2876 19.8175 55.9608 19.1889C55.6341 18.5568 55.4708 17.8093 55.4708 16.9464C55.4708 16.1048 55.6341 15.3661 55.9608 14.7305C56.2876 14.0948 56.7474 13.5994 57.3405 13.2443C57.9371 12.8892 58.6366 12.7116 59.4392 12.7116C59.979 12.7116 60.4814 12.7987 60.9466 12.9727C61.4154 13.1431 61.8238 13.4006 62.1718 13.745C62.5233 14.0895 62.7968 14.5227 62.9921 15.0447C63.1874 15.5632 63.2851 16.1705 63.2851 16.8665V17.4897H56.3763V16.0835H61.1491C61.1491 15.7567 61.078 15.4673 60.936 15.2152C60.7939 14.9631 60.5969 14.766 60.3447 14.6239C60.0961 14.4783 59.8067 14.4055 59.4765 14.4055C59.132 14.4055 58.8266 14.4854 58.5603 14.6452C58.2975 14.8015 58.0915 15.0128 57.9424 15.2791C57.7932 15.5419 57.7169 15.8349 57.7133 16.158V17.495C57.7133 17.8999 57.7879 18.2496 57.9371 18.5444C58.0898 18.8391 58.3046 19.0664 58.5816 19.2262C58.8586 19.386 59.1871 19.4659 59.567 19.4659C59.8192 19.4659 60.05 19.4304 60.2595 19.3594C60.469 19.2884 60.6483 19.1818 60.7975 19.0398C60.9466 18.8977 61.0603 18.7237 61.1384 18.5178L63.2371 18.6562C63.1306 19.1605 62.9122 19.6009 62.5819 19.9773C62.2552 20.3501 61.8327 20.6413 61.3142 20.8509C60.7993 21.0568 60.2045 21.1598 59.5297 21.1598ZM66.5157 12.8182L68.0178 15.6786L69.5573 12.8182H71.885L69.5146 16.9091L71.949 21H69.6318L68.0178 18.1715L66.4305 21H64.0867L66.5157 16.9091L64.172 12.8182H66.5157ZM77.5846 12.8182V14.5227H72.6574V12.8182H77.5846ZM73.776 10.858H76.0452V18.4858C76.0452 18.6953 76.0771 18.8587 76.1411 18.9759C76.205 19.0895 76.2938 19.1694 76.4074 19.2156C76.5246 19.2617 76.6595 19.2848 76.8122 19.2848C76.9188 19.2848 77.0253 19.2759 77.1318 19.2582C77.2384 19.2369 77.32 19.2209 77.3769 19.2102L77.7338 20.8988C77.6201 20.9343 77.4603 20.9751 77.2544 21.0213C77.0484 21.071 76.798 21.1012 76.5033 21.1119C75.9564 21.1332 75.477 21.0604 75.0651 20.8935C74.6567 20.7266 74.3389 20.4673 74.1116 20.1158C73.8843 19.7642 73.7725 19.3203 73.776 18.7841V10.858ZM80.3891 21.1385C80.0376 21.1385 79.7357 21.0142 79.4836 20.7656C79.235 20.5135 79.1107 20.2116 79.1107 19.8601C79.1107 19.5121 79.235 19.2138 79.4836 18.9652C79.7357 18.7166 80.0376 18.5923 80.3891 18.5923C80.73 18.5923 81.0283 18.7166 81.284 18.9652C81.5397 19.2138 81.6675 19.5121 81.6675 19.8601C81.6675 20.0945 81.6072 20.3093 81.4864 20.5046C81.3692 20.6964 81.2148 20.8509 81.023 20.968C80.8312 21.0817 80.6199 21.1385 80.3891 21.1385ZM83.5305 12.8182H85.7997V21.4048C85.7997 22.0369 85.6754 22.5483 85.4268 22.9389C85.1783 23.3295 84.8214 23.6154 84.3562 23.7965C83.8945 23.9776 83.3423 24.0682 82.6996 24.0682C82.6214 24.0682 82.5469 24.0664 82.4759 24.0629C82.4013 24.0629 82.3232 24.0611 82.2415 24.0575V22.2837C82.3018 22.2873 82.3551 22.2891 82.4013 22.2891C82.4439 22.2926 82.4901 22.2944 82.5398 22.2944C82.9055 22.2944 83.1612 22.2163 83.3068 22.06C83.456 21.9073 83.5305 21.6765 83.5305 21.3675V12.8182ZM84.6598 11.7635C84.326 11.7635 84.0384 11.6516 83.7969 11.4279C83.5554 11.2006 83.4347 10.929 83.4347 10.6129C83.4347 10.3004 83.5554 10.0323 83.7969 9.80859C84.0384 9.58132 84.326 9.46768 84.6598 9.46768C85.0007 9.46768 85.2901 9.58132 85.5281 9.80859C85.7695 10.0323 85.8903 10.3004 85.8903 10.6129C85.8903 10.929 85.7695 11.2006 85.5281 11.4279C85.2901 11.6516 85.0007 11.7635 84.6598 11.7635ZM94.425 15.1513L92.3476 15.2791C92.3121 15.1016 92.2357 14.9418 92.1185 14.7997C92.0013 14.6541 91.8469 14.5387 91.6551 14.4535C91.4669 14.3647 91.2414 14.3203 90.9786 14.3203C90.627 14.3203 90.3305 14.3949 90.089 14.544C89.8476 14.6896 89.7268 14.8849 89.7268 15.13C89.7268 15.3253 89.805 15.4904 89.9612 15.6254C90.1175 15.7603 90.3856 15.8686 90.7655 15.9503L92.2464 16.2486C93.0418 16.4119 93.6349 16.6747 94.0255 17.0369C94.4161 17.3991 94.6114 17.875 94.6114 18.4645C94.6114 19.0007 94.4534 19.4712 94.1373 19.8761C93.8248 20.2809 93.3952 20.5969 92.8483 20.8242C92.305 21.0479 91.6782 21.1598 90.968 21.1598C89.8849 21.1598 89.0219 20.9343 88.3792 20.4833C87.74 20.0288 87.3653 19.4109 87.2552 18.6296L89.4871 18.5124C89.5546 18.8427 89.718 19.0948 89.9772 19.2688C90.2364 19.4393 90.5684 19.5245 90.9733 19.5245C91.371 19.5245 91.6906 19.4482 91.9321 19.2955C92.1771 19.1392 92.3014 18.9386 92.305 18.6935C92.3014 18.4876 92.2144 18.3189 92.0439 18.1875C91.8735 18.0526 91.6107 17.9496 91.2556 17.8786L89.8387 17.5962C89.0397 17.4364 88.4449 17.1594 88.0542 16.7653C87.6672 16.3711 87.4736 15.8686 87.4736 15.2578C87.4736 14.7322 87.6157 14.2795 87.8998 13.8995C88.1874 13.5195 88.5905 13.2266 89.1089 13.0206C89.6309 12.8146 90.2417 12.7116 90.9413 12.7116C91.9747 12.7116 92.7879 12.93 93.3809 13.3668C93.9775 13.8036 94.3256 14.3984 94.425 15.1513Z" fill="white" />
	<g clip-path="url(#clip0_1_13)">
		<path d="M15.0841 2.02187C15.0239 2.02734 14.8325 2.04648 14.6603 2.06015C10.6876 2.41832 6.96651 4.56186 4.60971 7.85646C3.29734 9.68831 2.45797 11.7662 2.14081 13.9672C2.02872 14.7355 2.01505 14.9624 2.01505 16.0041C2.01505 17.0458 2.02872 17.2727 2.14081 18.041C2.9009 23.2932 6.63842 27.7061 11.7075 29.3411C12.6152 29.6336 13.5721 29.8332 14.6603 29.9535C15.0841 30 16.9159 30 17.3397 29.9535C19.2181 29.7457 20.8093 29.2809 22.3787 28.4798C22.6193 28.3568 22.6658 28.324 22.633 28.2966C22.6111 28.2802 21.5858 26.905 20.3554 25.2427L18.1189 22.2215L15.3165 18.0738C13.7744 15.7936 12.5058 13.9289 12.4949 13.9289C12.4839 13.9262 12.473 15.769 12.4675 18.0191C12.4593 21.959 12.4566 22.1176 12.4074 22.2105C12.3363 22.3445 12.2816 22.3992 12.1668 22.4593C12.0793 22.5031 12.0027 22.5113 11.5899 22.5113H11.1169L10.9911 22.432C10.9091 22.38 10.8489 22.3117 10.8079 22.2324L10.7505 22.1094L10.756 16.6275L10.7642 11.1429L10.8489 11.0362C10.8927 10.9788 10.9857 10.905 11.0513 10.8694C11.1634 10.8148 11.2071 10.8093 11.6801 10.8093C12.2379 10.8093 12.3308 10.8312 12.4757 10.9897C12.5168 11.0335 14.0342 13.3192 15.8496 16.0725C17.6651 18.8257 20.1476 22.5851 21.3671 24.4306L23.5817 27.7854L23.6938 27.7116C24.6863 27.0663 25.7362 26.1476 26.5673 25.1907C28.3363 23.1593 29.4764 20.6822 29.8592 18.041C29.9713 17.2727 29.985 17.0458 29.985 16.0041C29.985 14.9624 29.9713 14.7355 29.8592 13.9672C29.0991 8.71497 25.3616 4.30212 20.2926 2.66712C19.3985 2.37731 18.447 2.17772 17.3807 2.05741C17.1183 2.03007 15.311 2 15.0841 2.02187ZM20.8093 10.4812C20.9405 10.5468 21.0472 10.6726 21.0854 10.8038C21.1073 10.8749 21.1128 12.3951 21.1073 15.8209L21.0991 20.7368L20.2324 19.4081L19.363 18.0793V14.5058C19.363 12.1955 19.3739 10.8968 19.3903 10.8339C19.434 10.6808 19.5297 10.5605 19.661 10.4894C19.7731 10.432 19.8141 10.4265 20.2433 10.4265C20.648 10.4265 20.7191 10.432 20.8093 10.4812Z" fill="black" />
		<path d="M23.445 27.8455C23.3493 27.9057 23.3192 27.9467 23.404 27.9002C23.4641 27.8647 23.5626 27.7909 23.5462 27.7881C23.5379 27.7881 23.4915 27.8155 23.445 27.8455ZM23.2563 27.9686C23.2071 28.0068 23.2071 28.0096 23.2673 27.9795C23.3001 27.9631 23.3274 27.944 23.3274 27.9385C23.3274 27.9166 23.3138 27.9221 23.2563 27.9686ZM23.1196 28.0506C23.0704 28.0889 23.0704 28.0916 23.1306 28.0615C23.1634 28.0451 23.1907 28.026 23.1907 28.0205C23.1907 27.9986 23.177 28.0041 23.1196 28.0506ZM22.9829 28.1326C22.9337 28.1709 22.9337 28.1736 22.9939 28.1436C23.0267 28.1271 23.054 28.108 23.054 28.1025C23.054 28.0807 23.0403 28.0861 22.9829 28.1326ZM22.7751 28.242C22.6712 28.2967 22.6767 28.3185 22.7806 28.2666C22.8271 28.242 22.8626 28.2174 22.8626 28.2119C22.8626 28.1928 22.8599 28.1955 22.7751 28.242Z" fill="black" />
	</g>
	<defs>
		<linearGradient id="paint0_linear_1_13" x1="0" y1="0" x2="0" y2="32" gradientUnits="userSpaceOnUse">
			<stop stop-color="white" />
			<stop offset="0.9999" stop-color="#0A0A0A" />
			<stop offset="1" stop-opacity="0.1" />
		</linearGradient>
		<clipPath id="clip0_1_13">
			<rect width="28" height="28" fill="white" transform="translate(2 2)" />
		</clipPath>
	</defs>
</svg>